<svg xmlns="http://www.w3.org/2000/svg" viewBox="0 0 64 64" role="img" aria-label="Interact Ai">
  <defs>
    <linearGradient id="bg" x1="8" y1="6" x2="56" y2="58" gradientUnits="userSpaceOnUse">
      <stop offset="0" stop-color="#0f766e" />
      <stop offset="0.48" stop-color="#0f172a" />
      <stop offset="1" stop-color="#1e3a8a" />
    </linearGradient>
    <radialGradient id="glow" cx="0" cy="0" r="1" gradientUnits="userSpaceOnUse" gradientTransform="translate(47 17) rotate(126) scale(26)">
      <stop offset="0" stop-color="#7dd3fc" stop-opacity="0.95" />
      <stop offset="1" stop-color="#7dd3fc" stop-opacity="0" />
    </radialGradient>
    <filter id="softShadow" x="-20%" y="-20%" width="140%" height="140%">
      <feDropShadow dx="0" dy="5" stdDeviation="4" flood-color="#020617" flood-opacity="0.28" />
    </filter>
  </defs>
  <rect width="64" height="64" rx="18" fill="url(#bg)" />
  <rect width="64" height="64" rx="18" fill="url(#glow)" />
  <path d="M16 39.2c0-9.5 7.7-17.2 17.2-17.2h8.4c3.5 0 6.4 2.9 6.4 6.4v4.4c0 9.5-7.7 17.2-17.2 17.2h-8.4A6.4 6.4 0 0 1 16 43.6v-4.4Z" fill="#f8fafc" opacity="0.12" />
  <path d="M47.9 12.2 50 17l4.8 2.1L50 21.2 47.9 26l-2.1-4.8L41 19.1l4.8-2.1 2.1-4.8Z" fill="#67e8f9" />
  <path d="M18.8 46 28 18h7.1l9.2 28h-6.2l-1.8-6.1H26.7L24.9 46h-6.1Zm9.3-11.1h6.7l-3.3-11.2-3.4 11.2Z" fill="#ffffff" filter="url(#softShadow)" />
  <path d="M46.4 46V27.9h5.4V46h-5.4Zm-.2-22.8c0-1.7 1.2-2.9 3-2.9s3 1.2 3 2.9-1.2 2.9-3 2.9-3-1.2-3-2.9Z" fill="#ffffff" filter="url(#softShadow)" />
</svg>
